<?xml version="1.0" encoding="UTF-8"?>
<svg version="1.1" viewBox="0 0 2048 2048" width="1280" height="1280" xmlns="http://www.w3.org/2000/svg">
<path transform="translate(339)" d="m0 0h1202l21 6 16 8 12 9 12 12 10 15 5 11 4 13 2 13v81h80l15 2 15 5 15 8 11 9 11 11 10 15 6 14 4 16 1 12v1691l-2 21-5 16-8 16-10 13-7 7-14 10-17 8-20 6h-1198l-23-6-16-8-9-6-10-9-9-10-8-13-6-14-3-12-1-7v-83h-71l-16-1-17-4-14-6-12-8-10-9-10-11-9-15-6-16-2-9-1-9v-1706l3-16 6-16 9-15 11-12 7-7 14-9 11-5 16-5z" fill="#FCFCFC"/>
<path transform="translate(339)" d="m0 0h1202l21 6 16 8 12 9 12 12 10 15 5 11 4 13 2 13v81h80l15 2 15 5 15 8 11 9 11 11 10 15 6 14 4 16 1 12v1691l-2 21-5 16-8 16-10 13-7 7-14 10-17 8-20 6h-1198l-23-6-16-8-9-6-10-9-9-10-8-13-6-14-3-12-1-7v-83h-71l-16-1-17-4-14-6-12-8-10-9-10-11-9-15-6-16-2-9-1-9v-1706l3-16 6-16 9-15 11-12 7-7 14-9 11-5 16-5zm10 64-8 2-11 7-7 10-2 6-1 12v1661l1 28 3 9 6 8 8 6 11 3h1179l11-2 9-5 6-7 4-9 1-6v-1697l-3-9-7-9-10-6-14-2z" fill="#311F6D"/>
<path transform="translate(471,178)" d="m0 0h938l14 3 14 7 12 11 8 11 5 11 3 14v184l-2 14-5 12-8 11-10 10-14 8-14 4-13 1h-918l-17-2-14-5-9-6-10-9-7-9-5-10-3-10-1-7v-186l3-15 8-15 11-12 13-9 14-5z" fill="#FD7A79"/>
<path transform="translate(1625,231)" d="m0 0 76 1 11 4 8 7 6 12 1 7v1693l-3 12-7 9-8 5-7 2-12 1h-1174l-11-4-9-7-6-10-1-5-1-76 1-2 1039-1 20-2 14-4 17-9 11-8 11-11 10-15 5-11 4-13 2-14v-1493l1-67z" fill="#FDCB7E"/>
<path transform="translate(473,1269)" d="m0 0h318l14 3 16 8 12 11 9 14 4 10 1 5 1 277v47l-2 12-3 9-7 11-9 10-12 9-13 5-9 2h-322l-16-4-13-7-12-11-6-8-5-10-3-9-1-7v-322l4-15 8-14 9-10 8-6 14-7z" fill="#40C4FE"/>
<path transform="translate(471,178)" d="m0 0h938l14 3 14 7 12 11 8 11 5 11 3 14v184l-2 14-5 12-8 11-10 10-14 8-14 4-13 1h-918l-17-2-14-5-9-6-10-9-7-9-5-10-3-10-1-7v-186l3-15 8-15 11-12 13-9 14-5zm50 63-42 1-1 30 1 142 1 1h837l83-1 1-1v-171l-3-1z" fill="#311F6D"/>
<path transform="translate(473,1269)" d="m0 0h318l14 3 16 8 12 11 9 14 4 10 1 5 1 277v47l-2 12-3 9-7 11-9 10-12 9-13 5-9 2h-322l-16-4-13-7-12-11-6-8-5-10-3-9-1-7v-322l4-15 8-14 9-10 8-6 14-7zm6 64v305l4 1 301-1 1-1v-151l-1-153z" fill="#311F6D"/>
<path transform="translate(441,1050)" d="m0 0h759l11 4 8 7 4 6 3 8v14l-4 9-6 8-10 6-10 2h-751l-9-2-9-5-8-9-4-11v-9l3-11 6-8 8-6z" fill="#311F6D"/>
<path transform="translate(445,611)" d="m0 0h753l10 3 9 6 6 9 3 8v13l-4 9-4 6-9 7-5 2-6 1h-756l-9-3-6-4-7-7-4-8-1-4v-10l3-10 4-6 9-8 7-3z" fill="#311F6D"/>
<path transform="translate(691,830)" d="m0 0h737l13 1 9 4 8 7 6 11 1 5v10l-4 10-6 8-9 6-6 2-12 1h-741l-11-2-10-5-8-9-4-10v-13l4-10 6-8 10-6 4-1z" fill="#311F6D"/>
<path transform="translate(1033,1269)" d="m0 0h403l9 2 10 6 7 10 3 9v10l-3 9-4 6-7 7-9 4-3 1-16 1h-383l-14-2-8-4-7-6-5-8-2-6v-13l4-11 7-8 12-6z" fill="#311F6D"/>
<path transform="translate(1031,1638)" d="m0 0h406l10 3 6 4 8 9 4 11v10l-4 11-7 8-6 5-10 3h-407l-11-4-8-6-6-9-2-6v-13l4-11 6-7 7-5z" fill="#311F6D"/>
<path transform="translate(1029,1454)" d="m0 0h411l10 4 8 7 6 12 1 4v10l-3 9-7 9-9 6-5 2-10 1h-395l-11-2-9-5-8-9-4-10v-12l4-11 7-8 7-5z" fill="#311F6D"/>
<path transform="translate(449,830)" d="m0 0h52l15 2 10 6 6 8 4 9v15l-6 12-7 7-11 5-9 1h-55l-11-2-8-4-7-6-6-11-1-5v-8l3-11 7-9 9-6 6-2z" fill="#311F6D"/>
<path transform="translate(1396,1049)" d="m0 0h28l15 1 11 4 8 7 6 12 1 4v10l-4 11-8 9-6 4-11 3h-62l-12-3-8-6-7-8-3-8v-13l4-11 8-9 10-5 4-1z" fill="#311F6D"/>
<path transform="translate(1373,611)" d="m0 0h62l12 3 6 4 8 9 4 11v10l-4 11-7 9-11 6-5 1h-68l-10-4-8-6-6-9-2-6v-13l4-11 7-8 12-6z" fill="#311F6D"/>
<path transform="translate(317,177)" d="m0 0h2v1570h-2l-1-14v-11l-1-5v-35l-1-75v-1378l2-42z" fill="#270E67"/>
<path transform="translate(845,1382)" d="m0 0h1l1 209-1 11h-1l-1-18-1-32v-134z" fill="#270E67"/>
</svg>
